Brought to you by	(ULTRAHD) 

One man on a mission to make the best quality rips.

Hello my fellow p2p's.

Enjoy High Quality Rips like you deserve.

Many more to come...Hang tite!


Bluray Source - 300 2006 BluRay 1080p DTS dxva-LoNeWolf

300 (2006) 720p BrRip x264 - (ULTRAHD).avi
Format                                   : AVI
Format/Info                              : Audio Video Interleave
File size                                : 1.37 GiB
Duration                                 : 1h 56mn
Overall bit rate                         : 1 683 Kbps
Writing application                      : VirtualDubMod 1.5.10.2 (build 2542/release)
Writing library                          : VirtualDubMod build 2542/release

Video
ID                                       : 0
Format                                   : AVC
Format/Info                              : Advanced Video Codec
Format profile                           : High@L5.0
Format settings, CABAC                   : Yes
Format settings, ReFrames                : 16 frames
Codec ID                                 : H264
Duration                                 : 1h 56mn
Bit rate                                 : 1 035 Kbps
Width                                    : 1 280 pixels
Height                                   : 534 pixels
Display aspect ratio                     : 2.40:1
Frame rate                               : 23.976 fps
Color space                              : YUV
Chroma subsampling                       : 4:2:0
Bit depth                                : 8 bits
Scan type                                : Progressive
Bits/(Pixel*Frame)                       : 0.063
Stream size                              : 863 MiB (61%)
Writing library                          : x264 core 125 r2200bm 

Audio
ID                                       : 1
Format                                   : AC-3
Format/Info                              : Audio Coding 3
Mode extension                           : CM (complete main)
Format settings, Endianness              : Big
Codec ID                                 : 2000
Duration                                 : 1h 56mn
Bit rate mode                            : Constant
Bit rate                                 : 640 Kbps
Channel(s)                               : 6 channels
Channel positions                        : Front: L C R, Side: L R, LFE
Sampling rate                            : 48.0 KHz
Bit depth                                : 16 bits
Compression mode                         : Lossy
Stream size                              : 533 MiB (38%)
Alignment                                : Split accross interleaves
Interleave, duration                     : 42 ms (1.00 video frame)
Interleave, preload duration             : 500 ms


Quality Snips
 
http://bayimg.com/HakdhaAeb 
http://bayimg.com/HAKdiAaeB 
http://bayimg.com/hakDjAaEB 
http://bayimg.com/haKdLAaeB